<svg width="175" height="83" viewBox="0 0 175 83" fill="none" xmlns="http://www.w3.org/2000/svg">
<circle cx="24.9753" cy="34.4751" r="6.97435" fill="#0ACEA9"/>
<circle cx="40.0261" cy="34.4751" r="6.97435" fill="#1184FF"/>
<circle cx="40.0261" cy="49.5249" r="6.97435" fill="#845FEE"/>
<circle cx="24.9753" cy="49.5249" r="6.97435" fill="#FF8315"/>
<path d="M76.5074 54.5V43.9421H68.7649V54.5H64.1507V29.8648H68.7649V39.8362H76.5074V29.8648H81.1216V54.5H76.5074ZM95.2749 52.1929H95.0794C94.5319 53.001 93.8541 53.6658 93.046 54.1872C92.2379 54.6825 91.3124 54.9301 90.2697 54.9301C88.7055 54.9301 87.4803 54.4479 86.5939 53.4833C85.7076 52.5188 85.2644 50.9677 85.2644 48.83V35.5739H89.5658V47.6569C89.5658 48.8561 89.7743 49.7163 90.1914 50.2377C90.6085 50.7591 91.2342 51.0198 92.0684 51.0198C92.9026 51.0198 93.5934 50.6679 94.1409 49.964C94.7144 49.2341 95.0012 48.3477 95.0012 47.305V35.5739H99.3026V54.5H95.705L95.2749 52.1929ZM118.774 32.4066C118.774 35.0134 117.744 36.6297 115.684 37.2554C116.18 37.8028 116.558 38.4546 116.818 39.2106C117.105 39.9405 117.249 40.7356 117.249 41.5959C117.249 43.5771 116.636 45.1543 115.411 46.3274C114.185 47.4744 112.452 48.0479 110.21 48.0479H108.411C108.02 48.0479 107.707 48.1522 107.473 48.3608C107.238 48.5693 107.121 48.843 107.121 49.1819C107.121 49.4948 107.225 49.7685 107.434 50.0031C107.642 50.2117 107.916 50.3159 108.255 50.3159H114.746C115.997 50.3159 117.04 50.7721 117.874 51.6846C118.708 52.5709 119.126 53.757 119.126 55.243C119.126 56.3639 118.852 57.3676 118.304 58.2539C117.757 59.1403 117.001 59.8181 116.036 60.2873C115.098 60.7826 114.068 61.0303 112.947 61.0303H106.065C104.866 61.0303 103.862 60.6262 103.054 59.8181C102.272 59.0099 101.881 57.9672 101.881 56.6898C101.881 55.0474 102.676 53.757 104.266 52.8186C103.797 52.5318 103.419 52.1538 103.132 51.6846C102.872 51.2153 102.741 50.6679 102.741 50.0422C102.741 49.2601 103.002 48.5823 103.523 48.0088C104.045 47.4092 104.709 46.9661 105.518 46.6793C104.788 46.1319 104.227 45.428 103.836 44.5677C103.445 43.6814 103.25 42.6908 103.25 41.5959C103.25 39.6146 103.849 38.0505 105.048 36.9034C106.247 35.7303 107.968 35.1438 110.21 35.1438C111.409 35.1438 112.465 35.3393 113.377 35.7303C114.003 35.235 114.459 34.6746 114.746 34.0489C115.059 33.3972 115.215 32.8497 115.215 32.4066H118.774ZM110.21 38.3503C109.35 38.3503 108.685 38.637 108.216 39.2106C107.773 39.758 107.551 40.5531 107.551 41.5959C107.551 42.6126 107.773 43.4077 108.216 43.9812C108.685 44.5286 109.35 44.8023 110.21 44.8023C111.096 44.8023 111.761 44.5286 112.204 43.9812C112.673 43.4077 112.908 42.6126 112.908 41.5959C112.908 40.5531 112.673 39.758 112.204 39.2106C111.761 38.637 111.096 38.3503 110.21 38.3503ZM107.981 54.3045C107.486 54.3045 107.069 54.4739 106.73 54.8128C106.391 55.1517 106.221 55.5428 106.221 55.9859C106.221 56.5334 106.391 56.9635 106.73 57.2763C107.069 57.5892 107.486 57.7456 107.981 57.7456H112.791C113.338 57.7456 113.794 57.5892 114.159 57.2763C114.55 56.9635 114.746 56.5334 114.746 55.9859C114.746 55.4646 114.563 55.0474 114.199 54.7346C113.86 54.4479 113.443 54.3045 112.947 54.3045H107.981ZM128.352 35.1438C130.906 35.1438 132.796 35.9519 134.022 37.5682C135.273 39.1845 135.898 41.6871 135.898 45.0761C135.898 48.439 135.273 50.9286 134.022 52.5448C132.77 54.135 130.88 54.9301 128.352 54.9301C125.797 54.9301 123.894 54.135 122.642 52.5448C121.391 50.9286 120.765 48.439 120.765 45.0761C120.765 41.6871 121.391 39.1845 122.642 37.5682C123.894 35.9519 125.797 35.1438 128.352 35.1438ZM128.352 38.8195C127.257 38.8195 126.475 39.2757 126.005 40.1881C125.536 41.1006 125.301 42.4952 125.301 44.3722V45.7017C125.301 47.6048 125.536 49.0125 126.005 49.9249C126.475 50.8373 127.257 51.2935 128.352 51.2935C129.446 51.2935 130.228 50.8373 130.698 49.9249C131.167 49.0125 131.402 47.6048 131.402 45.7017V44.3722C131.402 42.4952 131.167 41.1006 130.698 40.1881C130.228 39.2757 129.446 38.8195 128.352 38.8195ZM139.142 29.8648H143.717V54.5H139.142V29.8648ZM156.854 33.9316V54.5H152.279V33.9316H146.179V29.8648H162.993V33.9316H156.854Z" fill="#F0F0F0"/>
<path d="M129.952 73L126.13 63.2H127.754L131.674 73H129.952ZM122.126 73L126.032 63.2H127.67L123.848 73H122.126ZM123.96 70.592V69.15H129.826V70.592H123.96ZM137.588 73L137.518 71.698V63.2H139.072V73H137.588ZM135.306 73.168C134.671 73.168 134.116 73.0187 133.64 72.72C133.173 72.412 132.805 71.9827 132.534 71.432C132.273 70.8813 132.142 70.2373 132.142 69.5C132.142 68.7533 132.273 68.1093 132.534 67.568C132.805 67.0173 133.173 66.5927 133.64 66.294C134.116 65.986 134.671 65.832 135.306 65.832C135.894 65.832 136.398 65.986 136.818 66.294C137.247 66.5927 137.574 67.0173 137.798 67.568C138.022 68.1093 138.134 68.7533 138.134 69.5C138.134 70.2373 138.022 70.8813 137.798 71.432C137.574 71.9827 137.247 72.412 136.818 72.72C136.398 73.0187 135.894 73.168 135.306 73.168ZM135.698 71.74C136.053 71.74 136.365 71.6467 136.636 71.46C136.916 71.264 137.131 70.998 137.28 70.662C137.439 70.326 137.518 69.9387 137.518 69.5C137.518 69.0613 137.439 68.674 137.28 68.338C137.131 68.002 136.916 67.7407 136.636 67.554C136.365 67.3673 136.048 67.274 135.684 67.274C135.311 67.274 134.979 67.3673 134.69 67.554C134.401 67.7407 134.172 68.002 134.004 68.338C133.845 68.674 133.761 69.0613 133.752 69.5C133.761 69.9387 133.845 70.326 134.004 70.662C134.172 70.998 134.401 71.264 134.69 71.46C134.989 71.6467 135.325 71.74 135.698 71.74ZM140.806 73V66H142.276L142.346 66.938C142.56 66.574 142.836 66.2987 143.172 66.112C143.508 65.9253 143.89 65.832 144.32 65.832C144.88 65.832 145.356 65.958 145.748 66.21C146.14 66.462 146.424 66.8447 146.602 67.358C146.807 66.8633 147.096 66.4853 147.47 66.224C147.843 65.9627 148.282 65.832 148.786 65.832C149.598 65.832 150.223 66.0933 150.662 66.616C151.1 67.1293 151.315 67.9227 151.306 68.996V73H149.752V69.416C149.752 68.856 149.691 68.4267 149.57 68.128C149.448 67.82 149.285 67.6053 149.08 67.484C148.874 67.3627 148.636 67.302 148.366 67.302C147.88 67.2927 147.502 67.4653 147.232 67.82C146.97 68.1747 146.84 68.6833 146.84 69.346V73H145.272V69.416C145.272 68.856 145.211 68.4267 145.09 68.128C144.978 67.82 144.819 67.6053 144.614 67.484C144.408 67.3627 144.17 67.302 143.9 67.302C143.414 67.2927 143.036 67.4653 142.766 67.82C142.504 68.1747 142.374 68.6833 142.374 69.346V73H140.806ZM153.003 73V66H154.557V73H153.003ZM153.787 64.67C153.535 64.67 153.316 64.5813 153.129 64.404C152.952 64.2173 152.863 63.998 152.863 63.746C152.863 63.494 152.952 63.2793 153.129 63.102C153.316 62.9247 153.535 62.836 153.787 62.836C154.039 62.836 154.254 62.9247 154.431 63.102C154.618 63.2793 154.711 63.494 154.711 63.746C154.711 63.998 154.618 64.2173 154.431 64.404C154.254 64.5813 154.039 64.67 153.787 64.67ZM156.405 73V66H157.875L157.973 67.288V73H156.405ZM161.151 73V69.416H162.719V73H161.151ZM161.151 69.416C161.151 68.856 161.086 68.4267 160.955 68.128C160.834 67.82 160.656 67.6053 160.423 67.484C160.199 67.3627 159.933 67.302 159.625 67.302C159.102 67.2927 158.696 67.4653 158.407 67.82C158.118 68.1747 157.973 68.6833 157.973 69.346H157.385C157.385 68.6087 157.492 67.9787 157.707 67.456C157.922 66.924 158.23 66.5227 158.631 66.252C159.032 65.972 159.508 65.832 160.059 65.832C160.619 65.832 161.095 65.944 161.487 66.168C161.888 66.392 162.192 66.742 162.397 67.218C162.612 67.6847 162.719 68.296 162.719 69.052V69.416H161.151Z" fill="#9CA3AF"/>
</svg>
