<svg width="99" height="32" viewBox="0 0 99 32" fill="none" xmlns="http://www.w3.org/2000/svg">
<path d="M12.357 24.6353V14.0773H4.61451V24.6353H0.000299092V8.01769e-05H4.61451V9.97146H12.357V8.01769e-05H16.9712V24.6353H12.357ZM31.1245 22.3282H30.929C30.3815 23.1363 29.7037 23.801 28.8956 24.3224C28.0875 24.8177 27.162 25.0654 26.1193 25.0654C24.5551 25.0654 23.3299 24.5831 22.4435 23.6186C21.5572 22.654 21.114 21.1029 21.114 18.9653V5.70918H25.4154V17.7922C25.4154 18.9913 25.624 19.8516 26.0411 20.373C26.4582 20.8944 27.0838 21.155 27.918 21.155C28.7522 21.155 29.4431 20.8031 29.9905 20.0993C30.564 19.3693 30.8508 18.483 30.8508 17.4402V5.70918H35.1522V24.6353H31.5546L31.1245 22.3282ZM54.6232 2.54181C54.6232 5.1487 53.5935 6.76498 51.5341 7.39063C52.0294 7.93808 52.4074 8.58981 52.6681 9.3458C52.9548 10.0757 53.0982 10.8708 53.0982 11.7311C53.0982 13.7124 52.4856 15.2895 51.2603 16.4626C50.0351 17.6097 48.3015 18.1832 46.0596 18.1832H44.2608C43.8698 18.1832 43.557 18.2875 43.3223 18.496C43.0877 18.7046 42.9704 18.9783 42.9704 19.3172C42.9704 19.63 43.0747 19.9037 43.2832 20.1384C43.4918 20.3469 43.7655 20.4512 44.1044 20.4512H50.5956C51.8469 20.4512 52.8896 20.9074 53.7239 21.8198C54.5581 22.7062 54.9752 23.8923 54.9752 25.3782C54.9752 26.4992 54.7014 27.5028 54.154 28.3892C53.6065 29.2755 52.8505 29.9533 51.886 30.4226C50.9475 30.9179 49.9178 31.1655 48.7968 31.1655H41.9146C40.7154 31.1655 39.7118 30.7615 38.9036 29.9533C38.1216 29.1452 37.7305 28.1024 37.7305 26.825C37.7305 25.1827 38.5256 23.8923 40.1159 22.9538C39.6466 22.667 39.2686 22.289 38.9819 21.8198C38.7212 21.3506 38.5908 20.8031 38.5908 20.1775C38.5908 19.3954 38.8515 18.7176 39.3729 18.1441C39.8943 17.5445 40.559 17.1013 41.3672 16.8146C40.6372 16.2671 40.0767 15.5633 39.6857 14.703C39.2947 13.8166 39.0992 12.826 39.0992 11.7311C39.0992 9.74987 39.6987 8.18574 40.8979 7.0387C42.0971 5.8656 43.8176 5.27905 46.0596 5.27905C47.2587 5.27905 48.3145 5.47456 49.227 5.8656C49.8526 5.37029 50.3088 4.80981 50.5956 4.18415C50.9084 3.53243 51.0648 2.98498 51.0648 2.54181H54.6232ZM46.0596 8.48553C45.1993 8.48553 44.5345 8.77229 44.0653 9.3458C43.6221 9.89325 43.4005 10.6884 43.4005 11.7311C43.4005 12.7478 43.6221 13.5429 44.0653 14.1164C44.5345 14.6639 45.1993 14.9376 46.0596 14.9376C46.9459 14.9376 47.6107 14.6639 48.0539 14.1164C48.5231 13.5429 48.7577 12.7478 48.7577 11.7311C48.7577 10.6884 48.5231 9.89325 48.0539 9.3458C47.6107 8.77229 46.9459 8.48553 46.0596 8.48553ZM43.8307 24.4397C43.3354 24.4397 42.9183 24.6092 42.5794 24.9481C42.2405 25.287 42.071 25.678 42.071 26.1212C42.071 26.6686 42.2405 27.0988 42.5794 27.4116C42.9183 27.7244 43.3354 27.8808 43.8307 27.8808H48.6404C49.1879 27.8808 49.6441 27.7244 50.009 27.4116C50.4001 27.0988 50.5956 26.6686 50.5956 26.1212C50.5956 25.5998 50.4131 25.1827 50.0481 24.8699C49.7092 24.5831 49.2921 24.4397 48.7968 24.4397H43.8307ZM64.2011 5.27905C66.7559 5.27905 68.6459 6.08718 69.8711 7.70346C71.1224 9.31974 71.7481 11.8224 71.7481 15.2113C71.7481 18.5742 71.1224 21.0638 69.8711 22.6801C68.6198 24.2703 66.7298 25.0654 64.2011 25.0654C61.6464 25.0654 59.7433 24.2703 58.492 22.6801C57.2407 21.0638 56.6151 18.5742 56.6151 15.2113C56.6151 11.8224 57.2407 9.31974 58.492 7.70346C59.7433 6.08718 61.6464 5.27905 64.2011 5.27905ZM64.2011 8.95477C63.1062 8.95477 62.3242 9.41098 61.8549 10.3234C61.3857 11.2358 61.1511 12.6305 61.1511 14.5075V15.837C61.1511 17.74 61.3857 19.1477 61.8549 20.0602C62.3242 20.9726 63.1062 21.4288 64.2011 21.4288C65.296 21.4288 66.0781 20.9726 66.5473 20.0602C67.0166 19.1477 67.2512 17.74 67.2512 15.837V14.5075C67.2512 12.6305 67.0166 11.2358 66.5473 10.3234C66.0781 9.41098 65.296 8.95477 64.2011 8.95477ZM74.9912 8.01769e-05H79.5663V24.6353H74.9912V8.01769e-05ZM92.7036 4.06684V24.6353H88.1285V4.06684H82.0283V8.01769e-05H98.8428V4.06684H92.7036Z" fill="#111928"/>
</svg>
