<svg width="175" height="70" viewBox="0 0 175 70" fill="none" xmlns="http://www.w3.org/2000/svg">
<circle cx="24.9753" cy="27.9751" r="6.97435" fill="#0ACEA9"/>
<circle cx="40.0261" cy="27.9751" r="6.97435" fill="#1184FF"/>
<circle cx="40.0261" cy="43.0249" r="6.97435" fill="#845FEE"/>
<circle cx="24.9753" cy="43.0249" r="6.97435" fill="#FF8315"/>
<path d="M76.5074 48V37.4421H68.7649V48H64.1507V23.3648H68.7649V33.3362H76.5074V23.3648H81.1216V48H76.5074ZM95.2749 45.6929H95.0794C94.5319 46.501 93.8541 47.1658 93.046 47.6872C92.2379 48.1825 91.3124 48.4301 90.2697 48.4301C88.7055 48.4301 87.4803 47.9479 86.5939 46.9833C85.7076 46.0188 85.2644 44.4677 85.2644 42.33V29.0739H89.5658V41.1569C89.5658 42.3561 89.7743 43.2163 90.1914 43.7377C90.6085 44.2591 91.2342 44.5198 92.0684 44.5198C92.9026 44.5198 93.5934 44.1679 94.1409 43.464C94.7144 42.7341 95.0012 41.8477 95.0012 40.805V29.0739H99.3026V48H95.705L95.2749 45.6929ZM118.774 25.9066C118.774 28.5134 117.744 30.1297 115.684 30.7554C116.18 31.3028 116.558 31.9546 116.818 32.7106C117.105 33.4405 117.249 34.2356 117.249 35.0959C117.249 37.0771 116.636 38.6543 115.411 39.8274C114.185 40.9744 112.452 41.5479 110.21 41.5479H108.411C108.02 41.5479 107.707 41.6522 107.473 41.8608C107.238 42.0693 107.121 42.343 107.121 42.6819C107.121 42.9948 107.225 43.2685 107.434 43.5031C107.642 43.7117 107.916 43.8159 108.255 43.8159H114.746C115.997 43.8159 117.04 44.2721 117.874 45.1846C118.708 46.0709 119.126 47.257 119.126 48.743C119.126 49.8639 118.852 50.8676 118.304 51.7539C117.757 52.6403 117.001 53.3181 116.036 53.7873C115.098 54.2826 114.068 54.5303 112.947 54.5303H106.065C104.866 54.5303 103.862 54.1262 103.054 53.3181C102.272 52.5099 101.881 51.4672 101.881 50.1898C101.881 48.5474 102.676 47.257 104.266 46.3186C103.797 46.0318 103.419 45.6538 103.132 45.1846C102.872 44.7153 102.741 44.1679 102.741 43.5422C102.741 42.7601 103.002 42.0823 103.523 41.5088C104.045 40.9092 104.709 40.4661 105.518 40.1793C104.788 39.6319 104.227 38.928 103.836 38.0677C103.445 37.1814 103.25 36.1908 103.25 35.0959C103.25 33.1146 103.849 31.5505 105.048 30.4034C106.247 29.2303 107.968 28.6438 110.21 28.6438C111.409 28.6438 112.465 28.8393 113.377 29.2303C114.003 28.735 114.459 28.1746 114.746 27.5489C115.059 26.8972 115.215 26.3497 115.215 25.9066H118.774ZM110.21 31.8503C109.35 31.8503 108.685 32.137 108.216 32.7106C107.773 33.258 107.551 34.0531 107.551 35.0959C107.551 36.1126 107.773 36.9077 108.216 37.4812C108.685 38.0286 109.35 38.3023 110.21 38.3023C111.096 38.3023 111.761 38.0286 112.204 37.4812C112.673 36.9077 112.908 36.1126 112.908 35.0959C112.908 34.0531 112.673 33.258 112.204 32.7106C111.761 32.137 111.096 31.8503 110.21 31.8503ZM107.981 47.8045C107.486 47.8045 107.069 47.9739 106.73 48.3128C106.391 48.6517 106.221 49.0428 106.221 49.4859C106.221 50.0334 106.391 50.4635 106.73 50.7763C107.069 51.0892 107.486 51.2456 107.981 51.2456H112.791C113.338 51.2456 113.794 51.0892 114.159 50.7763C114.55 50.4635 114.746 50.0334 114.746 49.4859C114.746 48.9646 114.563 48.5474 114.199 48.2346C113.86 47.9479 113.443 47.8045 112.947 47.8045H107.981ZM128.352 28.6438C130.906 28.6438 132.796 29.4519 134.022 31.0682C135.273 32.6845 135.898 35.1871 135.898 38.5761C135.898 41.939 135.273 44.4286 134.022 46.0448C132.77 47.635 130.88 48.4301 128.352 48.4301C125.797 48.4301 123.894 47.635 122.642 46.0448C121.391 44.4286 120.765 41.939 120.765 38.5761C120.765 35.1871 121.391 32.6845 122.642 31.0682C123.894 29.4519 125.797 28.6438 128.352 28.6438ZM128.352 32.3195C127.257 32.3195 126.475 32.7757 126.005 33.6881C125.536 34.6006 125.301 35.9952 125.301 37.8722V39.2017C125.301 41.1048 125.536 42.5125 126.005 43.4249C126.475 44.3373 127.257 44.7935 128.352 44.7935C129.446 44.7935 130.228 44.3373 130.698 43.4249C131.167 42.5125 131.402 41.1048 131.402 39.2017V37.8722C131.402 35.9952 131.167 34.6006 130.698 33.6881C130.228 32.7757 129.446 32.3195 128.352 32.3195ZM139.142 23.3648H143.717V48H139.142V23.3648ZM156.854 27.4316V48H152.279V27.4316H146.179V23.3648H162.993V27.4316H156.854Z" fill="#FFFFFF"/>
</svg>
